<svg width="29" height="29" viewBox="0 0 29 29" fill="none" xmlns="http://www.w3.org/2000/svg">
<path d="M14.2405 0C10.3733 0 9.88799 0.0169094 8.36914 0.0860292C6.85325 0.155446 5.81853 0.395437 4.91314 0.747562C3.97662 1.11126 3.18218 1.59777 2.39072 2.38953C1.59866 3.181 1.11215 3.97543 0.747265 4.91166C0.39425 5.81734 0.153962 6.85236 0.0857322 8.36765C0.017799 9.88651 0 10.3721 0 14.2393C0 18.1064 0.0172061 18.5903 0.0860292 20.1091C0.155742 21.625 0.395733 22.6597 0.747562 23.5651C1.11155 24.5016 1.59806 25.2961 2.38983 26.0875C3.181 26.8796 3.97543 27.3673 4.91136 27.731C5.81734 28.0831 6.85236 28.3231 8.36795 28.3925C9.88681 28.4616 10.3718 28.4786 14.2387 28.4786C18.1061 28.4786 18.59 28.4616 20.1088 28.3925C21.6247 28.3231 22.6606 28.0831 23.5666 27.731C24.5028 27.3673 25.2961 26.8796 26.0872 26.0875C26.8793 25.2961 27.3658 24.5016 27.7307 23.5654C28.0807 22.6597 28.321 21.6247 28.3922 20.1094C28.4605 18.5906 28.4783 18.1064 28.4783 14.2393C28.4783 10.3721 28.4605 9.88681 28.3922 8.36795C28.321 6.85206 28.0807 5.81734 27.7307 4.91196C27.3658 3.97543 26.8793 3.181 26.0872 2.38953C25.2952 1.59747 24.5031 1.11096 23.5657 0.747562C22.658 0.395437 21.6226 0.155446 20.1068 0.0860292C18.5879 0.0169094 18.1044 0 14.236 0H14.2405ZM12.9631 2.56604C13.3422 2.56544 13.7652 2.56604 14.2405 2.56604C18.0424 2.56604 18.493 2.57968 19.9943 2.64791C21.3827 2.7114 22.1361 2.94338 22.6381 3.13828C23.3026 3.39636 23.7763 3.70488 24.2744 4.20326C24.7728 4.70163 25.0813 5.17627 25.34 5.84077C25.5349 6.34212 25.7672 7.09561 25.8303 8.48394C25.8986 9.985 25.9134 10.4359 25.9134 14.236C25.9134 18.0361 25.8986 18.487 25.8303 19.9881C25.7669 21.3764 25.5349 22.1299 25.34 22.6313C25.0819 23.2958 24.7728 23.7689 24.2744 24.267C23.776 24.7654 23.3029 25.0739 22.6381 25.332C22.1367 25.5278 21.3827 25.7592 19.9943 25.8226C18.4933 25.8909 18.0424 25.9057 14.2405 25.9057C10.4383 25.9057 9.98767 25.8909 8.48661 25.8226C7.09828 25.7586 6.34478 25.5266 5.84255 25.3317C5.17805 25.0736 4.70341 24.7651 4.20504 24.2667C3.70666 23.7683 3.39814 23.2949 3.13946 22.6301C2.94456 22.1287 2.71229 21.3752 2.6491 19.9869C2.58087 18.4858 2.56722 18.0349 2.56722 14.2325C2.56722 10.43 2.58087 9.98144 2.6491 8.48038C2.71258 7.09205 2.94456 6.33856 3.13946 5.83662C3.39755 5.17212 3.70666 4.69748 4.20504 4.1991C4.70341 3.70073 5.17805 3.39221 5.84255 3.13353C6.34449 2.93774 7.09828 2.70635 8.48661 2.64257C9.80018 2.58324 10.3092 2.56544 12.9631 2.56248V2.56604ZM21.8413 4.93035C20.8979 4.93035 20.1326 5.69482 20.1326 6.63847C20.1326 7.58182 20.8979 8.34718 21.8413 8.34718C22.7846 8.34718 23.55 7.58182 23.55 6.63847C23.55 5.69512 22.7846 4.92976 21.8413 4.92976V4.93035ZM14.2405 6.92682C10.2021 6.92682 6.928 10.201 6.928 14.2393C6.928 18.2776 10.2021 21.5503 14.2405 21.5503C18.2788 21.5503 21.5517 18.2776 21.5517 14.2393C21.5517 10.201 18.2785 6.92682 14.2402 6.92682H14.2405ZM14.2405 9.49285C16.8617 9.49285 18.9869 11.6178 18.9869 14.2393C18.9869 16.8605 16.8617 18.9857 14.2405 18.9857C11.619 18.9857 9.49404 16.8605 9.49404 14.2393C9.49404 11.6178 11.619 9.49285 14.2405 9.49285V9.49285Z" fill="#040718"/>
</svg>
