<svg width="20" height="20" viewBox="0 0 20 20" fill="none" xmlns="http://www.w3.org/2000/svg">
<g id="&#240;&#159;&#166;&#134; icon &#34;instagram&#34;">
<path id="Vector" d="M14.5 1H5.5C3.01472 1 1 3.01472 1 5.5V14.5C1 16.9853 3.01472 19 5.5 19H14.5C16.9853 19 19 16.9853 19 14.5V5.5C19 3.01472 16.9853 1 14.5 1Z" stroke="white" stroke-width="1.5" stroke-linecap="round" stroke-linejoin="round"/>
<path id="Vector_2" d="M13.5999 9.43303C13.711 10.182 13.583 10.947 13.2343 11.6191C12.8855 12.2913 12.3337 12.8363 11.6574 13.1767C10.981 13.5172 10.2145 13.6357 9.46692 13.5154C8.71932 13.3951 8.02869 13.0421 7.49326 12.5067C6.95783 11.9712 6.60487 11.2806 6.48457 10.533C6.36427 9.78542 6.48277 9.01893 6.8232 8.34256C7.16364 7.6662 7.70867 7.11439 8.38079 6.76564C9.05291 6.4169 9.81789 6.28896 10.5669 6.40003C11.3309 6.51332 12.0383 6.86934 12.5844 7.4155C13.1306 7.96166 13.4866 8.669 13.5999 9.43303Z" stroke="white" stroke-width="1.5" stroke-linecap="round" stroke-linejoin="round"/>
<path id="Vector_3" d="M14.95 5.0498H14.959" stroke="white" stroke-width="1.5" stroke-linecap="round" stroke-linejoin="round"/>
</g>
</svg>
