<svg width="23" height="20" viewBox="0 0 23 20" fill="none" xmlns="http://www.w3.org/2000/svg">
<path d="M0 2.14286C0 0.95939 0.95939 0 2.14286 0H17.8571C19.0406 0 20 0.95939 20 2.14286V17.1827C20 17.6102 19.9282 18.1179 19.6606 18.5714H20.7143C21.1088 18.5714 21.4286 18.2516 21.4286 17.8571V5C21.4286 4.60551 21.7484 4.28571 22.1429 4.28571C22.5373 4.28571 22.8571 4.60551 22.8571 5V17.8571C22.8571 19.0406 21.8978 20 20.7143 20H2.13795C0.951291 20 0 19.0374 0 17.8571V2.14286ZM17.1429 18.5714C17.6705 18.5714 18.0768 18.2693 18.3616 17.941C18.4926 17.79 18.5714 17.5429 18.5714 17.1827V2.14286C18.5714 1.74837 18.2516 1.42857 17.8571 1.42857H2.14286C1.74837 1.42857 1.42857 1.74837 1.42857 2.14286V17.8571C1.42857 18.2548 1.74666 18.5714 2.13795 18.5714H17.1429Z" fill="white"/>
<path d="M2.85714 2.85714H17.1429V5.71429H2.85714V2.85714Z" fill="white"/>
<path d="M2.85714 7.14286H8.57143V11.4286H2.85714V7.14286Z" fill="white"/>
<path d="M2.85714 12.8571H8.57143V14.2857H2.85714V12.8571Z" fill="white"/>
<path d="M2.85714 15.7143H8.57143V17.1429H2.85714V15.7143Z" fill="white"/>
<path d="M10 7.14286H12.8571V8.57143H10V7.14286Z" fill="white"/>
<path d="M14.2857 7.14286H17.1429V8.57143H14.2857V7.14286Z" fill="white"/>
<path d="M10 10H12.8571V11.4286H10V10Z" fill="white"/>
<path d="M14.2857 10H17.1429V11.4286H14.2857V10Z" fill="white"/>
<path d="M10 12.8571H12.8571V14.2857H10V12.8571Z" fill="white"/>
<path d="M14.2857 12.8571H17.1429V14.2857H14.2857V12.8571Z" fill="white"/>
<path d="M10 15.7143H12.8571V17.1429H10V15.7143Z" fill="white"/>
<path d="M14.2857 15.7143H17.1429V17.1429H14.2857V15.7143Z" fill="white"/>
</svg>
