<svg width="539" height="450" viewBox="0 0 539 450" fill="none" xmlns="http://www.w3.org/2000/svg">
<path d="M411.9 444.4L287 352.9L217 418.6C213 421.8 208.9 423.4 204.6 423.4C194.9 423.4 188.4 419.3 185.2 411L135.7 261.3L12.9 223.1C5.4 221 1.1 215.6 0 207C0 198.4 4.3 192.5 12.9 189.2C348.9 63.5 518 0.699951 520.2 0.699951C524.1 0.699951 528.2 2.49995 532.3 6.09995C536.4 9.69995 538.3 14.4 538 20.1L452.4 428.3C449.5 442.3 441.1 449.3 427.1 449.3C421.6 449.3 416.6 447.7 411.9 444.4ZM210.6 294.7C364.2 156.1 441.2 86.4 441.3 85.5C441.5 84.6 441.6 84 441.6 83.6C441.6 80.4 439.3 78.8 434.6 78.8C433.5 78.8 343.8 135.9 165.4 250L203 373.4L210.6 294.7Z" fill="white"/>
</svg>
