<svg width="539" height="449" viewBox="0 0 539 449" fill="none" xmlns="http://www.w3.org/2000/svg">
<path d="M411.9 443.7L287 352.2L217 417.9C213 421.1 208.9 422.7 204.6 422.7C194.9 422.7 188.4 418.6 185.2 410.3L135.7 260.6L12.9 222.4C5.4 220.3 1.1 214.9 0 206.3C0 197.7 4.3 191.8 12.9 188.5C348.9 62.8 518 0 520.2 0C524.1 0 528.2 1.8 532.3 5.4C536.4 9 538.3 13.7 538 19.4L452.4 427.6C449.5 441.6 441.1 448.6 427.1 448.6C421.6 448.6 416.6 447 411.9 443.7ZM210.6 294C364.2 155.4 441.2 85.7 441.3 84.8C441.5 83.9 441.6 83.3 441.6 82.9C441.6 79.7 439.3 78.1 434.6 78.1C433.5 78.1 343.8 135.2 165.4 249.3L203 372.7L210.6 294Z" fill="#040718"/>
</svg>
