<svg width="29" height="29" viewBox="0 0 29 29" fill="none" xmlns="http://www.w3.org/2000/svg">
<path d="M9.42402 26.6982C20.1703 26.6982 26.0506 17.7934 26.0506 10.0844C26.0506 9.83386 26.0506 9.58335 26.0392 9.33283C27.1788 8.51296 28.1702 7.47673 28.9565 6.30386C27.9081 6.77073 26.7799 7.07818 25.5948 7.22622C26.8027 6.50883 27.7258 5.35873 28.1702 3.99228C27.042 4.66412 25.7885 5.14238 24.4552 5.40428C23.384 4.26557 21.8683 3.55957 20.1931 3.55957C16.9681 3.55957 14.347 6.1786 14.347 9.40115C14.347 9.85664 14.404 10.3007 14.4952 10.7334C9.64055 10.4943 5.33291 8.15996 2.44976 4.62996C1.94834 5.49538 1.66344 6.49744 1.66344 7.56783C1.66344 9.59473 2.70047 11.3825 4.2617 12.4301C3.30445 12.396 2.40417 12.1341 1.61786 11.7013C1.61786 11.7241 1.61786 11.7469 1.61786 11.7811C1.61786 14.6051 3.63493 16.9736 6.30156 17.5088C5.81153 17.6454 5.29872 17.7137 4.76312 17.7137C4.38705 17.7137 4.02238 17.6796 3.66911 17.6112C4.40984 19.9342 6.57506 21.6195 9.12773 21.6651C7.12206 23.2365 4.60357 24.1702 1.86857 24.1702C1.40134 24.1702 0.934106 24.1474 0.478271 24.0905C3.05374 25.7303 6.13062 26.6982 9.42402 26.6982Z" fill="#040718"/>
</svg>
